<svg width="283" height="30" xmlns="http://www.w3.org/2000/svg">
  <g fill="#000000">
    <path d="m2.2,2.6l11.5,0c2.8,0 5,0.8 6.5,2.2c1.1,1.1 1.7,2.5 1.7,4.2l0,0.1c0,2.8 -1.5,4.3 -3.2,5.3c2.9,1.1 4.6,2.8 4.6,6.1l0,0.1c0,4.5 -3.7,6.8 -9.2,6.8l-11.7,0l0,-24.8l-0.2,0zm10.3,10c2.4,0 3.9,-0.8 3.9,-2.6l0,-0.1c0,-1.6 -1.3,-2.5 -3.6,-2.5l-5.4,0l0,5.2l5.1,0zm1.5,10c2.4,0 3.8,-0.8 3.8,-2.7l0,-0.1c0,-1.7 -1.2,-2.7 -4,-2.7l-6.3,0l0,5.4l6.5,0l0,0.1z" />
    <path d="m28.7,15l0,0c0,-7.1 5.5,-12.8 13.2,-12.8c7.6,0 13.1,5.7 13.1,12.7l0,0.1c0,7 -5.5,12.8 -13.2,12.8c-7.6,-0.1 -13.1,-5.7 -13.1,-12.8zm20.6,0l0,0c0,-4.3 -3.1,-7.8 -7.5,-7.8c-4.4,0 -7.4,3.5 -7.4,7.7l0,0.1c0,4.2 3.1,7.8 7.5,7.8c4.4,-0.1 7.4,-3.5 7.4,-7.8z" />
    <path d="m61.9,2.6l5,0l11.6,15.2l0,-15.2l5.4,0l0,24.7l-4.6,0l-12,-15.7l0,15.7l-5.4,0l0,-24.7z" />
    <path d="m91.9,2.6l9.6,0c7.8,0 13.1,5.3 13.1,12.3l0,0.1c0,6.9 -5.4,12.3 -13.1,12.3l-9.6,0l0,-24.7zm9.7,19.8c4.4,0 7.4,-3 7.4,-7.4l0,0c0,-4.4 -3,-7.4 -7.4,-7.4l-4.2,0l0,14.9l4.2,0l0,-0.1z" />
    <path d="m132.6,23.7l3.2,-3.8c2.2,1.8 4.6,3 7.4,3c2.2,0 3.6,-0.9 3.6,-2.3l0,-0.1c0,-1.4 -0.8,-2.1 -5,-3.1c-5,-1.3 -8.2,-2.6 -8.2,-7.5l0,-0.1c0,-4.5 3.6,-7.4 8.6,-7.4c3.6,0 6.7,1.1 9.2,3.1l-2.8,4.1c-2.2,-1.5 -4.3,-2.4 -6.4,-2.4c-2.1,0 -3.2,1 -3.2,2.2l0,0.1c0,1.6 1.1,2.2 5.3,3.2c5,1.3 7.8,3.1 7.8,7.4l0,-0.1c0,4.9 -3.7,7.7 -9.1,7.7c-3.6,0 -7.4,-1.3 -10.4,-4z" />
    <path d="m164.2,7.6l-7.5,0l0,-5l20.5,0l0,5l-7.5,0l0,19.7l-5.4,0l0,-19.7l-0.1,0z" />
    <path d="m183.5,2.6l11.3,0c3.1,0 5.6,0.9 7.2,2.5c1.4,1.4 2.1,3.3 2.1,5.6l0,0.1c0,4 -2.2,6.5 -5.3,7.7l6,8.8l-6.4,0l-5.3,-7.9l-4.3,0l0,7.9l-5.4,0l0,-24.7l0.1,0zm10.9,12c2.6,0 4.2,-1.4 4.2,-3.5l0,-0.1c0,-2.3 -1.6,-3.5 -4.3,-3.5l-5.4,0l0,7.1l5.5,0z" />
    <path d="m211.1,2.6l18.6,0l0,4.8l-13.2,0l0,5l11.6,0l0,4.8l-11.6,0l0,5.2l13.4,0l0,4.8l-18.8,0l0,-24.6z" />
    <path d="m236.9,2.6l18.6,0l0,4.8l-13.2,0l0,5l11.6,0l0,4.8l-11.6,0l0,5.2l13.4,0l0,4.8l-18.8,0l0,-24.6z" />
    <path d="m268.4,7.6l-7.5,0l0,-5l20.5,0l0,5l-7.5,0l0,19.7l-5.4,0l0,-19.7l-0.1,0z" />
  </g>
</svg>